<svg xmlns="http://www.w3.org/2000/svg" xmlns:xlink="http://www.w3.org/1999/xlink" width="300" height="108" viewBox="0 0 300 108"><defs><clipPath id="a"><rect width="300" height="108" fill="#959da5"/></clipPath></defs><rect width="11.002" height="49.839" transform="translate(89.783 36)" fill="#959da5"/><g clip-path="url(#a)"><path d="M124.228,44.891a11.772,11.772,0,0,0-5.746,1.422,5.46,5.46,0,0,0-2.331,5.172,4.539,4.539,0,0,0,1.985,4.165,8.513,8.513,0,0,0,4.632,1.249l13.926-.071q.763.071,1.6.071c.555,0,1.114.024,1.671.068a22.859,22.859,0,0,1,4.8.8,9.757,9.757,0,0,1,4.178,2.4,9.658,9.658,0,0,1,2.507,3.678,16.45,16.45,0,0,1,1.051,4.443q.067.7.1,1.354t.035,1.354q-.139,8.678-4.8,11.765a22.7,22.7,0,0,1-12.673,3.089h-28V76.957h26.317a13.512,13.512,0,0,0,6.022-1.109q2.539-1.181,2.053-5.346-.35-3.259-2.437-4.024a15.569,15.569,0,0,0-4.943-.833l-12.394-.068a20.566,20.566,0,0,1-12.22-3.089q-4.489-3.16-4.421-11.414.139-8.676,4.84-11.835a22.478,22.478,0,0,1,12.707-3.161l27.5-.07v8.885Z" transform="translate(-0.253 0)" fill="#959da5"/><rect width="11.002" height="49.839" transform="translate(156.837 36)" fill="#959da5"/><path d="M172.033,36h11.835l15.041,37.136L214.3,36H225.51L204.622,85.839H193.761Z" transform="translate(-0.415 0)" fill="#959da5"/><path d="M246.061,36,267.37,85.839h-11.7l-4.6-11.869H229.352L224.9,85.839h-11.07L234.927,36Zm-13.3,29.085h14.9l-7.591-19.158Z" transform="translate(-0.516 0)" fill="#959da5"/><path d="M278.464,85.1a15.31,15.31,0,0,1-11.387-11.414,41.229,41.229,0,0,1-.765-7.983V36h10.511V63.35a26.894,26.894,0,0,0,1.53,10.62q1.6,3.687,9.887,3.679l12.4-.069v8.254h-13.3a51.325,51.325,0,0,1-8.872-.731" transform="translate(-0.642 0)" fill="#959da5"/><rect width="2.48" height="9.516" transform="translate(178.515 98.217)" fill="#959da5"/><path d="M183.437,107.731V98.217h2.48l4.585,5.818V98.217h2.461v9.516H190.5l-4.585-5.82v5.82Z" transform="translate(-0.442 0)" fill="#959da5"/><path d="M199.821,102.407h4.924q0,.69-.063,1.377a4.921,4.921,0,0,1-.252,1.148,4.649,4.649,0,0,1-.721,1.319,4.28,4.28,0,0,1-1.07.959,5.056,5.056,0,0,1-1.349.586,5.8,5.8,0,0,1-1.545.2,5.469,5.469,0,0,1-2.032-.367,4.571,4.571,0,0,1-1.577-1.029,4.643,4.643,0,0,1-1.025-1.581,5.93,5.93,0,0,1,0-4.089,4.483,4.483,0,0,1,1.025-1.581,4.673,4.673,0,0,1,1.6-1.022,5.705,5.705,0,0,1,2.089-.365,5.2,5.2,0,0,1,2.628.644,4.469,4.469,0,0,1,1.785,1.994l-2.354.971a2.387,2.387,0,0,0-.855-1.124,2.141,2.141,0,0,0-1.2-.339,2.414,2.414,0,0,0-1.013.207,2.183,2.183,0,0,0-.778.594,2.861,2.861,0,0,0-.508.925,4.093,4.093,0,0,0-.025,2.336,2.546,2.546,0,0,0,.475.895,2.127,2.127,0,0,0,.785.587,2.667,2.667,0,0,0,1.087.209,3,3,0,0,0,.7-.083,1.809,1.809,0,0,0,.613-.263,1.532,1.532,0,0,0,.45-.474,1.893,1.893,0,0,0,.24-.7h-2.037Z" transform="translate(-0.47 0)" fill="#959da5"/><path d="M211.771,100.31h-2.95V101.9h2.785v2.1h-2.785v1.64h2.95v2.1H206.34V98.217h5.431Z" transform="translate(-0.497 0)" fill="#959da5"/><path d="M213.573,107.731V98.217h2.48l4.583,5.818V98.217H223.1v9.516h-2.466l-4.583-5.82v5.82Z" transform="translate(-0.515 0)" fill="#959da5"/><rect width="2.48" height="9.516" transform="translate(224.591 98.217)" fill="#959da5"/><path d="M235.056,100.31h-2.948V101.9h2.783v2.1h-2.783v1.64h2.948v2.1h-5.431V98.217h5.431Z" transform="translate(-0.554 0)" fill="#959da5"/><path d="M244.794,107.731h-3.087l-2.368-3.661v3.661h-2.481V98.217h3.855a3.785,3.785,0,0,1,1.393.234,2.624,2.624,0,0,1,1.564,1.58,3.266,3.266,0,0,1,.195,1.136,2.786,2.786,0,0,1-.526,1.756,2.652,2.652,0,0,1-1.55.913Zm-5.457-5.268h.47a1.81,1.81,0,0,0,1.126-.3,1.162,1.162,0,0,0,.1-1.638,1.269,1.269,0,0,0-.1-.1,1.815,1.815,0,0,0-1.126-.3h-.465Z" transform="translate(-0.571 0)" fill="#959da5"/><path d="M248.336,107.733h-2.48V98.217h2.48Zm1.077-11.939-2.43,1.666-.962-.895,2.064-1.969Z" transform="translate(-0.593 0)" fill="#959da5"/><path d="M256.193,106.077h-3.545l-.57,1.654h-2.645l3.633-9.516h2.708l3.633,9.516h-2.646Zm-.658-1.881-1.114-3.161-1.114,3.161Z" transform="translate(-0.601 0)" fill="#959da5"/><path d="M267.319,98.217v7.421H270.3v2.1h-5.455V98.217Z" transform="translate(-0.638 0)" fill="#959da5"/><path d="M274.7,100.31v7.421h-2.48V100.31H270.18V98.217h6.557v2.095Z" transform="translate(-0.651 0)" fill="#959da5"/><path d="M277.858,98.217h3.678a4.337,4.337,0,0,1,1.829.392,4.973,4.973,0,0,1,1.494,1.039,4.814,4.814,0,0,1,1.006,1.516,4.648,4.648,0,0,1,0,3.608,4.791,4.791,0,0,1-1,1.521,4.941,4.941,0,0,1-1.494,1.054,4.382,4.382,0,0,1-1.842.391h-3.678Zm2.48,7.421h.57a3.088,3.088,0,0,0,1.152-.2,2.44,2.44,0,0,0,.853-.555,2.365,2.365,0,0,0,.526-.837,3.018,3.018,0,0,0,.176-1.068,2.927,2.927,0,0,0-.19-1.054,2.447,2.447,0,0,0-.536-.843,2.475,2.475,0,0,0-.855-.556,3.037,3.037,0,0,0-1.139-.2h-.569Z" transform="translate(-0.67 0)" fill="#959da5"/><path d="M293.278,106.077h-3.543l-.57,1.654H286.52l3.633-9.516h2.709l3.631,9.516h-2.645Zm-.658-1.881-1.114-3.161-1.114,3.161Z" transform="translate(-0.691 0)" fill="#959da5"/><path d="M297.753,106.519a1.476,1.476,0,0,1,.114-.576,1.462,1.462,0,0,1,.792-.788,1.481,1.481,0,1,1,0,2.727A1.466,1.466,0,0,1,297.753,106.519Z" transform="translate(-0.718 0)" fill="#959da5"/><rect width="81.832" height="9.516" transform="translate(89.785 98.215)" fill="#959da5"/></g><g clip-path="url(#a)"><path d="M65.431,57.449l6.211-21.29a4.906,4.906,0,0,0-3.8-6.043l-4.277-1.053a5.438,5.438,0,0,0-6.58,3.489l-2.559,8.773a.711.711,0,0,1-1.381-.167V18.044c0-7.092-6.259-12.841-13.981-12.841H33.571c-.364,0-.723.017-1.08.042V2.954a3.229,3.229,0,0,0-6.434,0V7.218a12.621,12.621,0,0,0-6.467,10.826V51.11a5.611,5.611,0,0,1-5.834,5.358H10.867v7.259H9.1V56.468H0V97.855H9.1v-7.26h1.772v3.587a6.34,6.34,0,0,0,5.673,6.077l3.523,7.022a1.358,1.358,0,0,0,1.222.719h7.771a1.36,1.36,0,0,0,1.223-.719l3.171-6.321a1.19,1.19,0,0,1,1.071-.63H39.7a1.191,1.191,0,0,1,1.072.63l3.171,6.321a1.358,1.358,0,0,0,1.222.719h7.771a1.36,1.36,0,0,0,1.223-.719l3.488-6.951H59.91a2.888,2.888,0,0,0,3-2.758V90.23a9.77,9.77,0,0,0,5.716-8.7c0-4.808-3.756-8.808-8.719-9.667V62.321a7.16,7.16,0,0,0,5.521-4.872" fill="#959da5"/></g></svg>